<svg width="100" height="26" viewBox="0 0 100 26" fill="none" xmlns="http://www.w3.org/2000/svg">
<path d="M16.0416 2.44313C16.0416 2.08104 16.1489 1.72707 16.3501 1.42601C16.5513 1.12494 16.8372 0.890282 17.1717 0.751715C17.5063 0.613148 17.8744 0.576892 18.2295 0.647533C18.5846 0.718173 18.9108 0.892538 19.1669 1.14858C19.4229 1.40462 19.5973 1.73083 19.6679 2.08596C19.7386 2.4411 19.7023 2.80921 19.5637 3.14374C19.4252 3.47827 19.1905 3.76419 18.8895 3.96536C18.5884 4.16653 18.2344 4.2739 17.8723 4.2739C17.6301 4.28057 17.389 4.23778 17.1639 4.14813C16.9388 4.05849 16.7343 3.92388 16.5629 3.75253C16.3916 3.58118 16.257 3.37669 16.1673 3.15155C16.0777 2.92642 16.0349 2.68536 16.0416 2.44313ZM55.738 23.5518C55.7375 23.9145 55.8446 24.2692 56.0458 24.571C56.2469 24.8728 56.5331 25.1082 56.868 25.2474C57.203 25.3865 57.5717 25.4232 57.9275 25.3527C58.2833 25.2823 58.6102 25.1079 58.8668 24.8516C59.1235 24.5953 59.2983 24.2686 59.3693 23.9129C59.4402 23.5572 59.404 23.1885 59.2654 22.8533C59.1267 22.5182 58.8917 22.2317 58.5902 22.0301C58.2886 21.8286 57.9341 21.721 57.5714 21.721C57.3289 21.714 57.0876 21.7565 56.8621 21.846C56.6367 21.9355 56.4319 22.07 56.2603 22.2414C56.0887 22.4128 55.9538 22.6174 55.864 22.8427C55.7742 23.0681 55.7313 23.3093 55.738 23.5518ZM98.1641 18.1409C98.5269 18.1414 98.8817 18.0343 99.1836 17.833C99.4855 17.6318 99.7209 17.3455 99.8599 17.0104C99.999 16.6753 100.036 16.3064 99.9649 15.9506C99.8942 15.5947 99.7196 15.2678 99.463 15.0113C99.2065 14.7547 98.8796 14.5801 98.5237 14.5094C98.1678 14.4387 97.799 14.4753 97.4639 14.6143C97.1288 14.7534 96.8425 14.9888 96.6413 15.2907C96.44 15.5925 96.3328 15.9473 96.3334 16.3102C96.3267 16.5517 96.3693 16.7921 96.4585 17.0167C96.5477 17.2414 96.6816 17.4455 96.8521 17.6167C97.0226 17.788 97.2262 17.9227 97.4504 18.0129C97.6747 18.103 97.9149 18.1466 98.1565 18.1409H98.1641ZM2.31966 10.6803H9.39577V8.52619H2.31966V3.48456H10.8166V1.33041H0V18.1562H11.1247V16.0021H2.31966V10.6803ZM16.78 18.1562H18.98V7.41346H16.78V18.1562ZM33.8273 1.32531H36.0273V18.1562H34.0947L33.8604 16.412C33.3758 17.0174 32.7577 17.5024 32.0544 17.8293C31.3512 18.1562 30.582 18.316 29.8067 18.2963C26.2038 18.2963 23.8765 15.8213 23.8765 11.9891C23.8765 8.27411 26.3158 5.67945 29.8067 5.67945C31.5433 5.67945 32.9488 6.28292 33.8197 7.39055L33.8273 1.32531ZM30.0079 7.66809C27.6933 7.66809 26.1376 9.40465 26.1376 11.9968C26.1376 14.5889 27.6933 16.3254 30.0079 16.3254C32.2741 16.3254 33.8553 14.5685 33.8553 12.0502C33.84 9.42757 32.297 7.67319 29.9952 7.67319L30.0079 7.66809ZM46.22 10.8662C44.3587 10.6396 43.3046 10.4537 43.3046 9.29007C43.3046 8.27156 44.3587 7.5968 45.9909 7.5968C46.6427 7.5968 48.5855 7.79541 48.8096 9.75095H51.0554C50.7804 6.10213 47.455 5.69218 45.9909 5.6769C42.7851 5.64125 41.1275 7.48222 41.1275 9.43012C41.1275 12.1445 43.5337 12.6384 46.22 12.9593C47.9541 13.163 49.0999 13.2979 49.0999 14.6602C49.0999 15.6787 47.9821 16.3789 46.3168 16.3789C45.0004 16.3789 43.2027 15.8875 43.1034 13.9167H40.8576C40.9212 17.2854 43.7858 18.2937 46.3168 18.2937C49.2374 18.2937 51.277 16.743 51.277 14.5201C51.2693 11.7141 48.8631 11.1921 46.2073 10.8713L46.22 10.8662ZM56.4637 18.1562H58.6637V5.82713H56.4637V18.1562ZM69.1315 15.447L65.5667 5.82204H63.2037L67.8329 18.1562H70.3562L74.9752 5.82204H72.6606L69.1315 15.447ZM90.4133 5.82204V18.1562H88.4883L88.254 16.412C87.7694 17.0174 87.1513 17.5024 86.448 17.8293C85.7448 18.1562 84.9756 18.316 84.2003 18.2963C80.5974 18.2963 78.2701 15.8213 78.2701 11.9891C78.2701 8.27411 80.7094 5.67945 84.2003 5.67945C86.3494 5.67945 87.5767 6.61648 88.2566 7.50513L88.4883 5.82204H90.4133ZM84.3888 7.66809C82.0742 7.66809 80.5184 9.40465 80.5184 11.9968C80.5184 14.5889 82.0742 16.3254 84.3888 16.3254C86.6524 16.3254 88.2362 14.5685 88.2362 12.0502C88.2362 9.42757 86.6906 7.67319 84.3888 7.67319V7.66809Z" fill="#101820"/>
</svg>
